<?xml version="1.0" standalone="no"?>
<!DOCTYPE svg PUBLIC "-//W3C//DTD SVG 20010904//EN"
 "http://www.w3.org/TR/2001/REC-SVG-20010904/DTD/svg10.dtd">
<svg version="1.0" xmlns="http://www.w3.org/2000/svg"
 width="76.000000pt" height="55.000000pt" viewBox="0 0 76.000000 55.000000"
 preserveAspectRatio="xMidYMid meet">

<g transform="translate(0.000000,55.000000) scale(0.100000,-0.100000)"
fill="#000000" stroke="none">
<path d="M10 535 c0 -13 48 -15 370 -15 322 0 370 2 370 15 0 13 -48 15 -370
15 -322 0 -370 -2 -370 -15z"/>
<path d="M10 280 c0 -6 130 -10 370 -10 240 0 370 4 370 10 0 6 -130 10 -370
10 -240 0 -370 -4 -370 -10z"/>
<path d="M390 20 c0 -6 68 -10 185 -10 117 0 185 4 185 10 0 6 -68 10 -185 10
-117 0 -185 -4 -185 -10z"/>
</g>
</svg>
